# xmcd CD database file
#
# Track frame offsets:
#	150
#	13331
#	26680
#	39788
#	54506
#	69076
#	83895
#	94819
#	107042
#	120787
#	133803
#	145535
#	161073
#	174981
#	187461
#	200541
#	211867
#	224932
#	238100
#	249838
#	264267
#	278150
#	292259
#	306215
#
# Disc length: 4236 seconds
#
# Revision: 0
# Processed by: cddbd v1.5.2PL0 Copyright (c) Steve Scherf et al.
# Submitted via: CDex 1.79
#
DISCID=62108a18
DTITLE=Django Reinhardt and Stephane Grappelli - The Hot Club of France
DYEAR=2004
DGENRE=Jazz
TTITLE0=Oh! Lady be Good
TTITLE1=Shine
TTITLE2=Ain;t Misbehavin'
TTITLE3=Georgia on My Mmind
TTITLE4=When Day is Done
TTITLE5=Nuages
TTITLE6=Some Of These Days
TTITLE7=Night and Day
TTITLE8=Moonglow
TTITLE9=I'm Confession'
TTITLE10=Djangology
TTITLE11=Chicago
TTITLE12=The Sheik of Araby
TTITLE13=Lambeth Walk
TTITLE14=Avalon
TTITLE15=Exactly Like You
TTITLE16=Charleston
TTITLE17=You're Driving Me Crazy
TTITLE18=Dinah
TTITLE19=Limehouse Blues
TTITLE20=Swannee River
TTITLE21=After You've Gone
TTITLE22=I;ve Found a New Baby
TTITLE23=Tiger Rag
EXTD=YEAR: 2004
EXTT0=
EXTT1=
EXTT2=
EXTT3=
EXTT4=
EXTT5=
EXTT6=
EXTT7=
EXTT8=
EXTT9=
EXTT10=
EXTT11=
EXTT12=
EXTT13=
EXTT14=
EXTT15=
EXTT16=
EXTT17=
EXTT18=
EXTT19=
EXTT20=
EXTT21=
EXTT22=
EXTT23=
PLAYORDER=
